HIERARCHY
ROOT root
{
	OFFSET	0	13.1	24.9
	CHANNELS 6  Xposition Yposition Zposition Xrotation Yrotation Zrotation
	JOINT spine_1
	{
		OFFSET	0	9.99999	0
		CHANNELS 3  Xrotation Yrotation Zrotation
		JOINT spine_2
		{
			OFFSET	0	112	-10
			CHANNELS 3  Xrotation Yrotation Zrotation
			JOINT spine_3
			{
				OFFSET	0	206.5	19.3
				CHANNELS 3  Xrotation Yrotation Zrotation
				JOINT spine_4
				{
					OFFSET	0	110.4	14.6
					CHANNELS 3  Xrotation Yrotation Zrotation
					JOINT neck_1
					{
						OFFSET	0	71.8	-50.3
						CHANNELS 3  Xrotation Yrotation Zrotation
						JOINT neck_2
						{
							OFFSET	0	86.2	-25.8
							CHANNELS 3  Xrotation Yrotation Zrotation
							JOINT head_ee
							{
								OFFSET	0	179.8	-8.7
								CHANNELS 3  Xrotation Yrotation Zrotation
								End Site
								{
									OFFSET	1	0	0
								}
							}
						}
					}
					JOINT left_clavicle
					{
						OFFSET	-43.2	22.4	-70.8
						CHANNELS 3  Xrotation Yrotation Zrotation
						JOINT left_shoulder
						{
							OFFSET	-93.9	-5.79999	48.7
							CHANNELS 3  Xrotation Yrotation Zrotation
							JOINT left_elbow
							{
								OFFSET	-291.4	-30.8	15.2
								CHANNELS 3  Xrotation Yrotation Zrotation
								JOINT left_lowarm_twist
								{
									OFFSET	-110.7	-3.89999	13.6
									CHANNELS 3  Xrotation Yrotation Zrotation
									JOINT left_hand
									{
										OFFSET	-110.7	-3.89999	13.6
										CHANNELS 3  Xrotation Yrotation Zrotation
										JOINT left_ee
										{
											OFFSET	-80.8	-5.10001	12.1
											CHANNELS 3  Xrotation Yrotation Zrotation
											End Site
											{
												OFFSET	1	0	0
											}
										}
									}
								}
							}
						}
					}
					JOINT right_clavicle
					{
						OFFSET	43.2	22.4	-70.8
						CHANNELS 3  Xrotation Yrotation Zrotation
						JOINT right_shoulder
						{
							OFFSET	93.9	-5.79999	48.7
							CHANNELS 3  Xrotation Yrotation Zrotation
							JOINT right_elbow
							{
								OFFSET	291.4	-30.8	15.2
								CHANNELS 3  Xrotation Yrotation Zrotation
								JOINT right_lowarm_twist
								{
									OFFSET	110.7	-3.89999	13.6
									CHANNELS 3  Xrotation Yrotation Zrotation
									JOINT right_hand
									{
										OFFSET	110.7	-3.89999	13.6
										CHANNELS 3  Xrotation Yrotation Zrotation
										JOINT right_ee
										{
											OFFSET	80.8	-5.10001	12.1
											CHANNELS 3  Xrotation Yrotation Zrotation
											End Site
											{
												OFFSET	1	0	0
											}
										}
									}
								}
							}
						}
					}
				}
			}
		}
	}
	JOINT left_hip
	{
		OFFSET	-82.8	-127.5	0.300001
		CHANNELS 3  Xrotation Yrotation Zrotation
		JOINT left_knee
		{
			OFFSET	-28.2	-396.7	2.2
			CHANNELS 3  Xrotation Yrotation Zrotation
			JOINT left_ankle
			{
				OFFSET	-11.7	-411.3	35.4
				CHANNELS 3  Xrotation Yrotation Zrotation
				JOINT left_toes
				{
					OFFSET	0	-60	-88.6
					CHANNELS 3  Xrotation Yrotation Zrotation
					JOINT left_foot_ee
					{
						OFFSET	-22.5	-16.5	-42.2
						CHANNELS 3  Xrotation Yrotation Zrotation
						End Site
						{
							OFFSET	1	0	0
						}
					}
				}
			}
		}
	}
	JOINT right_hip
	{
		OFFSET	82.8	-127.5	0.300001
		CHANNELS 3  Xrotation Yrotation Zrotation
		JOINT right_knee
		{
			OFFSET	28.2	-396.7	2.2
			CHANNELS 3  Xrotation Yrotation Zrotation
			JOINT right_ankle
			{
				OFFSET	11.7	-411.3	35.4
				CHANNELS 3  Xrotation Yrotation Zrotation
				JOINT right_toes
				{
					OFFSET	0	-60	-88.6
					CHANNELS 3  Xrotation Yrotation Zrotation
					JOINT right_foot_ee
					{
						OFFSET	22.5	-16.5	-42.2
						CHANNELS 3  Xrotation Yrotation Zrotation
						End Site
						{
							OFFSET	1	0	0
						}
					}
				}
			}
		}
	}
}
MOTION
Frames: 6
Frame Time: 0.02
2800.94 716.97 -1473.77 -8.47632011572 64.8231005352 0.522000217956 0.556622 0.0613193 4.22616 0.566532 -0.207483 4.22152 0.553866 -1.05256 4.09367 0.530702 -0.393431 4.20828 0.935544 7.85856 -8.4805 1.65134 20.9032 -8.63138 -0.0 0.0 -0.0 0.759013 19.1891 3.37188 24.8126 -44.2139 51.3616 2.04313 -45.3395 0.853467 -64.8157 -5.88701 5.22569 -6.33056 25.8916 -26.2432 -0.0 0.0 -0.0 10.0719 2.75919 -19.9176 -25.5298 -10.7867 -65.8523 0.191418 5.4169 -0.0090553 13.8876 -0.2787 1.74779 -0.895313 -6.69038 3.04613 0.0 0.0 0.0 -12.4242 -6.164 13.5151 0.291082 -0.0120956 -0.043031 42.6962 17.6411 -5.216 -35.133 0.0 0.0 -0.0 0.0 -0.0 35.3609 29.9572 -1.84404 -6.86241 -0.221113 -1.02934 1.54926 -16.9183 0.228409 -19.3934 0.0 0.0 0.0 0.0 0.0 
2728.82242084 713.771 -1509.97465821 -6.66177001736 69.0953355171 -1.40185645238 0.479723 0.834262 4.20354 0.489374 0.565337 4.248 0.535465 -0.300202 4.27487 0.51017 0.37807 4.2687 0.511958 6.05559 -9.45855 1.17093 18.5167 -9.76723 -0.0 0.0 -0.0 -3.52387 20.2222 -2.80761 19.1588 -47.8727 56.8598 1.69879 -40.0783 0.619665 -66.3013 -6.07517 5.25375 -4.55716 22.8751 -17.4965 -0.0 0.0 -0.0 10.4276 -1.63182 -20.4418 -20.9565 -9.70123 -65.8459 0.20957 5.92705 -0.0108493 13.7702 -0.278132 1.73281 -1.5907 -24.2229 -0.556228 0.0 0.0 0.0 -10.5095 -9.80798 13.337 -14.5096 0.320626 2.19765 40.7194 17.7131 -5.04455 -24.497 0.0 0.0 -0.0 0.0 -0.0 32.2363 34.8497 -3.89163 -12.1257 -0.306352 -1.83219 -0.276362 -8.74371 -0.0404704 -22.9036 0.0 0.0 0.0 0.0 0.0 
2709.43900809 714.785 -1517.95436579 -5.01840366986 70.5677341651 -3.74949537637 0.557458 0.695756 4.37658 0.568015 0.416131 4.41189 0.604047 -0.474531 4.406 0.577038 0.226566 4.42564 0.363158 5.30324 -8.59237 0.885211 16.4715 -8.83939 -0.0 0.0 -0.0 -4.21463 20.379 -3.79268 16.3346 -48.5104 57.6634 1.5115 -36.8217 0.503154 -66.354 -6.08187 5.25466 -4.08297 21.2275 -15.6728 -0.0 0.0 -0.0 10.5849 -3.71856 -20.6068 -19.0812 -9.30329 -65.611 0.223164 6.30852 -0.0122981 13.1252 -0.274459 1.65051 -2.11693 -28.6867 0.234394 0.0 0.0 0.0 -10.7677 -7.87065 13.6656 -15.5042 0.322085 2.35024 42.163 19.6832 -5.21583 -22.3846 0.0 0.0 -0.0 0.0 -0.0 31.0059 35.2776 -4.0622 -16.6025 -0.320617 -2.51874 6.57373 -16.0134 0.954005 -23.7537 0.0 0.0 0.0 0.0 0.0 
2689.5403871 720.375 -1524.84263892 -4.68078782137 71.8362398388 -4.3926293187 0.581146 0.63581 4.45239 0.592102 0.351496 4.48373 0.623536 -0.550938 4.46366 0.595778 0.160192 4.49461 0.195543 5.20678 -9.31153 0.770787 16.8822 -9.61132 -0.0 0.0 -0.0 -4.80906 20.7501 -4.5801 13.1329 -48.8433 57.6478 1.33231 -33.4225 0.400013 -66.3926 -6.08676 5.25532 -3.6996 19.3395 -14.4733 -0.0 0.0 -0.0 10.746 -5.95285 -20.7249 -17.3016 -8.55135 -65.2412 0.260658 7.35763 -0.0167593 12.6337 -0.271038 1.58782 -2.0191 -28.7728 -0.332973 0.0 0.0 0.0 -9.20932 -8.44801 13.3284 -19.8585 0.297296 3.01771 42.0732 18.9104 -5.18986 -22.3131 0.0 0.0 -0.0 0.0 -0.0 29.9375 35.7641 -3.71001 -18.0389 -0.313825 -2.73902 9.29844 -9.50043 1.32536 -24.5799 0.0 0.0 0.0 0.0 0.0 
2671.84024724 721.23 -1527.2289809 -4.41537604733 72.5255291244 -5.04531144767 0.629001 0.647642 4.56822 0.640537 0.355957 4.60008 0.673086 -0.565888 4.57904 0.643875 0.163593 4.61091 0.355791 4.83206 -9.03398 0.88933 15.9992 -9.36567 -0.0 0.0 -0.0 -5.42434 22.2013 -5.09692 9.21557 -48.7875 57.2686 1.31624 -33.1037 0.391199 -66.7324 -6.12991 5.26098 -3.19342 16.7305 -12.8265 -0.0 0.0 -0.0 10.6247 -8.8543 -20.1717 -14.4408 -6.96209 -65.139 0.331351 9.32169 -0.0270141 11.7046 -0.263103 1.46943 -1.89249 -28.708 -0.981983 0.0 0.0 0.0 -8.53434 -6.43809 13.5822 -22.1342 0.264181 3.36532 40.5206 13.8427 -4.96239 -21.2476 0.0 0.0 -0.0 0.0 -0.0 27.4557 35.5576 -3.14097 -17.4077 -0.31749 -2.64225 13.4658 -18.8664 1.92671 -25.2666 0.0 0.0 0.0 0.0 0.0 
2653.22345829 724.177 -1531.19142026 -3.11473197638 73.6438257084 -7.49995292518 0.623293 0.682171 4.59846 0.634969 0.388498 4.63245 0.670475 -0.540558 4.61721 0.640791 0.194614 4.64461 -0.213297 6.99503 -8.14228 0.347439 19.0922 -8.0879 -0.0 0.0 -0.0 -5.94478 22.5792 -5.73779 4.68099 -49.238 56.7258 1.20895 -30.9153 0.334321 -67.1761 -6.18628 5.26799 -2.60061 11.4336 -11.884 -0.0 0.0 -0.0 10.8183 -10.9768 -20.2708 -11.7791 -6.17002 -65.8248 0.371714 10.4335 -0.0339384 12.6023 -0.270801 1.58382 -1.90331 -28.7153 -0.927271 0.0 0.0 0.0 -3.79753 -1.15857 13.6276 -32.6685 -0.0673624 4.94575 39.412 13.1159 -4.85432 -20.1506 0.0 0.0 -0.0 0.0 -0.0 25.6563 36.0315 -2.71417 -19.7944 -0.298028 -3.00791 15.4786 -20.5711 2.21244 -24.299 0.0 0.0 0.0 0.0 0.0 
